<?xml version="1.0" encoding="UTF-8"?>
<svg width="59px" height="51px" viewBox="0 0 59 51" version="1.1" xmlns="http://www.w3.org/2000/svg" xmlns:xlink="http://www.w3.org/1999/xlink">
    <!-- Generator: Sketch 49.2 (51160) - http://www.bohemiancoding.com/sketch -->
    <title>Group</title>
    <desc>Created with Sketch.</desc>
    <defs></defs>
    <g id="Page-1" stroke="none" stroke-width="1" fill="none" fill-rule="evenodd">
        <g id="upload-modal" transform="translate(-460.000000, -249.000000)" fill="#4A90E2" fill-rule="nonzero">
            <g id="Group" transform="translate(460.000000, 249.000000)">
                <path d="M50.1254167,16.5059632 C49.6072,7.60733681 42.31185,0.494368132 33.5159333,0.494368132 C28.1764333,0.494368132 23.0060667,3.1273728 19.8023667,7.42343187 C19.7296,7.38487115 19.6519167,7.35916401 19.5781667,7.32258077 C19.3834667,7.22766209 19.1858167,7.13669835 18.98325,7.05661071 C18.8701667,7.01211758 18.7570833,6.9715794 18.6430167,6.93104121 C18.4443833,6.86084093 18.2437833,6.79953929 18.0382667,6.74318132 C17.9242,6.71253049 17.8111167,6.68089093 17.6950833,6.65419505 C17.4748167,6.60376951 17.2506167,6.56520879 17.0234667,6.53159176 C16.9231667,6.51676071 16.8248333,6.49698599 16.72355,6.48512115 C16.39905,6.44952665 16.06865,6.42678571 15.7333333,6.42678571 C10.8540333,6.42678571 6.88333333,10.418314 6.88333333,15.3254121 C6.88333333,15.4529591 6.89021667,15.5775398 6.89906667,15.7021206 C2.80938333,17.9435857 0,22.6410717 0,27.3425126 C0,34.3457316 5.66596667,40.0438187 12.6309167,40.0438187 L17.7,40.0438187 C18.2428,40.0438187 18.6833333,39.6018536 18.6833333,39.0550824 C18.6833333,38.5083113 18.2428,38.0663462 17.7,38.0663462 L12.6309167,38.0663462 C6.75058333,38.0663462 1.96666667,33.2561442 1.96666667,27.3425126 C1.96666667,23.2353022 4.62658333,18.9718714 8.29146667,17.2049997 L8.85,16.9370522 L8.85,16.3141484 C8.85,16.1925338 8.85786667,16.067953 8.86475,15.9433723 L8.8736,15.7703434 L8.8618,15.584461 C8.85688333,15.4984409 8.85,15.4124209 8.85,15.3254121 C8.85,11.5098788 11.9376667,8.40425824 15.7333333,8.40425824 C16.0371833,8.40425824 16.3371,8.43095412 16.63505,8.47050357 C16.71175,8.48039093 16.7874667,8.49324451 16.8631833,8.50609808 C17.1267167,8.54960247 17.3863167,8.60694918 17.6419833,8.6811044 C17.6754167,8.69099176 17.7098333,8.69692418 17.7422833,8.70681154 C18.0235167,8.79283159 18.2978667,8.90258132 18.5663167,9.02518462 C18.6341667,9.05583544 18.7010333,9.08945247 18.7679,9.12306951 C19.0058667,9.24072912 19.2389167,9.37124231 19.4631167,9.51757527 C21.358,10.7525069 22.6166667,12.8921321 22.6166667,15.3254121 C22.6166667,15.8721832 23.0572,16.3141484 23.6,16.3141484 C24.1428,16.3141484 24.5833333,15.8721832 24.5833333,15.3254121 C24.5833333,12.6024324 23.3581,10.1651975 21.4366667,8.53180522 C24.2549,4.82404423 28.8982,2.47184066 33.5159333,2.47184066 C41.1308667,2.47184066 47.4576333,8.53773764 48.1164667,16.2024212 C47.1115,16.1312321 45.6060167,16.0946489 44.1015167,16.3260132 C43.5646167,16.4080783 43.1958667,16.9123338 43.2774833,17.4521838 C43.3512333,17.9416082 43.7701333,18.2926096 44.2480333,18.2926096 C44.2972,18.2926096 44.34735,18.2886547 44.3975,18.2807448 C46.5844333,17.9485294 48.8647833,18.2599813 49.0034333,18.2787673 C53.5818333,19.1537989 57.0333333,23.3944887 57.0333333,28.1512989 C57.0333333,33.6180217 52.6093167,38.0663462 47.1724667,38.0663462 L43.2666667,38.0663462 C42.7238667,38.0663462 42.2833333,38.5083113 42.2833333,39.0550824 C42.2833333,39.6018536 42.7238667,40.0438187 43.2666667,40.0438187 L47.1724667,40.0438187 C53.6939333,40.0438187 59,34.7085978 59,28.1512989 C59,22.7241255 55.2367833,17.8565769 50.1254167,16.5059632 Z" id="Shape"></path>
                <path d="M31.1795333,26.4921995 C31.0890667,26.400247 30.9799167,26.3280692 30.8589667,26.2776437 C30.6190333,26.1777813 30.3476333,26.1777813 30.1077,26.2776437 C29.98675,26.3280692 29.8785833,26.400247 29.7871333,26.4921995 L21.92145,34.4011008 C21.5369667,34.7876967 21.5369667,35.412578 21.92145,35.7991739 C22.1132,35.9919775 22.3649333,36.0888736 22.6166667,36.0888736 C22.8684,36.0888736 23.1201333,35.9919775 23.3118833,35.7991739 L29.5,29.5770566 L29.5,49.9311813 C29.5,50.4779525 29.9405333,50.9199176 30.4833333,50.9199176 C31.0261333,50.9199176 31.4666667,50.4779525 31.4666667,49.9311813 L31.4666667,29.5770566 L37.6547833,35.7991739 C37.8465333,35.9919775 38.0982667,36.0888736 38.35,36.0888736 C38.6017333,36.0888736 38.8534667,35.9919775 39.0452167,35.7991739 C39.4297,35.412578 39.4297,34.7876967 39.0452167,34.4011008 L31.1795333,26.4921995 Z" id="Shape"></path>
            </g>
        </g>
    </g>
</svg>